<?xml version="1.0" standalone="no"?>
<!DOCTYPE svg PUBLIC "-//W3C//DTD SVG 20010904//EN"
 "http://www.w3.org/TR/2001/REC-SVG-20010904/DTD/svg10.dtd">
<svg version="1.0" xmlns="http://www.w3.org/2000/svg"
 width="260.000000pt" height="260.000000pt" viewBox="0 0 260.000000 260.000000"
 preserveAspectRatio="xMidYMid meet">
<metadata>
Created by potrace 1.11, written by Peter Selinger 2001-2013
</metadata>
<g transform="translate(0.000000,260.000000) scale(0.100000,-0.100000)"
fill="#000000" stroke="none">
<path d="M1101 2584 c-181 -28 -371 -103 -534 -211 -93 -62 -279 -248 -341
-342 -99 -150 -169 -317 -203 -489 -23 -119 -23 -365 0 -484 53 -266 167 -479
362 -673 192 -193 395 -303 665 -361 119 -26 381 -26 499 0 273 59 474 167
667 360 193 193 301 394 360 667 14 62 18 127 18 249 0 122 -4 187 -18 249
-38 178 -101 329 -197 476 -65 99 -249 284 -346 348 -281 186 -610 260 -932
211z m79 -1064 l0 -610 335 0 335 0 0 -195 0 -195 -535 0 -535 0 0 805 0 805
200 0 200 0 0 -610z"/>
</g>
</svg>
