<svg version="1.0" xmlns="http://www.w3.org/2000/svg" width="346.667" height="346.667" viewBox="0 0 260 260"><path d="M110.1 1.6C92 4.4 73 11.9 56.7 22.7c-9.3 6.2-27.9 24.8-34.1 34.2-9.9 15-16.9 31.7-20.3 48.9-2.3 11.9-2.3 36.5 0 48.4 5.3 26.6 16.7 47.9 36.2 67.3 19.2 19.3 39.5 30.3 66.5 36.1 11.9 2.6 38.1 2.6 49.9 0 27.3-5.9 47.4-16.7 66.7-36 19.3-19.3 30.1-39.4 36-66.7 1.4-6.2 1.8-12.7 1.8-24.9s-.4-18.7-1.8-24.9c-3.8-17.8-10.1-32.9-19.7-47.6-6.5-9.9-24.9-28.4-34.6-34.8-28.1-18.6-61-26-93.2-21.1zM118 108v61h67v39H78V47h40v61z"/></svg>